<svg
   xmlns:dc="http://purl.org/dc/elements/1.1/"
   xmlns:cc="http://creativecommons.org/ns#"
   xmlns:rdf="http://www.w3.org/1999/02/22-rdf-syntax-ns#"
   xmlns:svg="http://www.w3.org/2000/svg"
   xmlns="http://www.w3.org/2000/svg"
   xmlns:sodipodi="http://sodipodi.sourceforge.net/DTD/sodipodi-0.dtd"
   xmlns:inkscape="http://www.inkscape.org/namespaces/inkscape"
   width="210mm"
   height="297mm"
   viewBox="0 0 210 297"
   version="1.1"
   id="svg8"
   inkscape:version="1.0.1 (3bc2e813f5, 2020-09-07)"
   sodipodi:docname="misioplusie.svg">
  <defs
     id="defs2" />
  <sodipodi:namedview
     id="base"
     pagecolor="#ffffff"
     bordercolor="#666666"
     borderopacity="1.0"
     inkscape:pageopacity="0.0"
     inkscape:pageshadow="2"
     inkscape:zoom="0.35"
     inkscape:cx="-618.82721"
     inkscape:cy="65.279839"
     inkscape:document-units="mm"
     inkscape:current-layer="layer1"
     inkscape:document-rotation="0"
     showgrid="false"
     inkscape:window-width="1267"
     inkscape:window-height="1198"
     inkscape:window-x="2690"
     inkscape:window-y="130"
     inkscape:window-maximized="0" />
  <metadata
     id="metadata5">
    <rdf:RDF>
      <cc:Work
         rdf:about="">
        <dc:format>image/svg+xml</dc:format>
        <dc:type
           rdf:resource="http://purl.org/dc/dcmitype/StillImage" />
        <dc:title></dc:title>
      </cc:Work>
    </rdf:RDF>
  </metadata>
  <g
     inkscape:label="Layer 1"
     inkscape:groupmode="layer"
     id="layer1">
    <path
       style="fill:#ffdd55;fill-opacity:1;stroke-width:0.862765"
       d="m 105.12969,256.15098 c -1.06467,-1.10638 3.6618,-2.26278 0,0 L 94.417268,247.3031 47.684448,208.55878 c -16.15242,-13.39134 -14.96663,-23.23127 -14.96663,-23.23127 -0.25209,-0.38086 5.55328,-62.29887 6.497,-78.2005 l 4.35995,-73.464839 26.71525,21.980902 c 43.699212,35.955043 -21.26235,-14.741907 -26.71525,-21.980902 -0.93048,-1.235237 44.82149,2.295799 66.596532,1.420593 l 54.96341,-2.209152 -26.34464,22.292938 c 0,0 25.85857,-22.364767 26.34464,-22.292938 0.48606,0.07183 6.26211,60.230406 6.26211,60.230406 l 3.13008,67.057392 -0.51701,8.01409 c 0,0 -1.38756,19.23179 -8.20115,30.68613 -3.74561,6.31037 -9.8047,11.87054 -9.8047,11.87054 l -7.86573,8.48521 -14.35211,13.15519 c -2.85353,3.48212 -19.44622,16.83059 -20.0197,17.4779 -0.79364,0.89584 -7.16337,7.83173 -8.63681,6.30051 z"
       id="path29-6"
       sodipodi:nodetypes="sccscscssscssccsccccss" />
    <path
       style="fill:#d40000;stroke-width:0.830695"
       d="m 105.09736,252.60157 c -1.01833,-1.07232 3.50242,-2.19313 0,0 l -10.246182,-8.57554 -44.69882,-37.55176 c -15.44941,-12.97915 -14.31523,-22.51621 -14.31523,-22.51621 -0.24112,-0.36914 5.31158,-60.3813 6.21423,-75.79347 l 4.17018,-71.203575 25.55251,21.304326 C 113.5713,93.113678 51.437108,43.977193 46.221538,36.961015 c -0.88997,-1.197216 42.8707,2.225134 63.698002,1.376867 l 52.57118,-2.141154 -25.19801,21.606756 c 0,0 24.7331,-21.676373 25.19801,-21.606756 0.46491,0.06962 5.98956,58.376505 5.98956,58.376505 l 2.99385,64.993337 -0.49451,7.76742 c 0,0 -0.70209,22.27633 -9.39824,33.41241 l -5.81311,6.51469 -9.5342,9.5437 -13.72745,12.75027 c -2.72932,3.37494 -18.59984,16.31255 -19.14835,16.93993 -0.75911,0.86827 -6.8516,7.59067 -8.26091,6.10658 z"
       id="path29"
       sodipodi:nodetypes="sccscscssscssccsccccss" />
    <ellipse
       style="fill:#ffdd55;fill-opacity:1;stroke-width:0.182984"
       id="path33"
       cx="104.05052"
       cy="152.90001"
       rx="37.65538"
       ry="18.684109" />
    <ellipse
       style="fill:#ffdd55;fill-opacity:1;stroke-width:0.134505"
       id="path35"
       cx="103.78719"
       cy="157.28108"
       rx="24.225838"
       ry="17.3866" />
    <ellipse
       style="fill:#ffdd55;fill-opacity:1;stroke-width:0.182984"
       id="path37"
       cx="104.31384"
       cy="137.63005"
       rx="18.959351"
       ry="15.829594" />
    <ellipse
       style="fill:#ffdd55;fill-opacity:1;stroke-width:0.182994"
       id="path39"
       ry="7.0638289"
       rx="12.799602"
       cy="33.053589"
       cx="135.49658"
       transform="matrix(0.67380324,0.73891081,-0.74862963,0.66298844,0,0)" />
    <ellipse
       style="fill:#ffdd55;fill-opacity:1;stroke-width:0.182994"
       id="path39-6"
       ry="7.0638289"
       rx="12.799602"
       cy="160.23218"
       cx="-2.0231652"
       transform="matrix(-0.67380325,0.7389108,0.74862962,0.66298845,0,0)" />
    <path
       style="fill:#ffdd55;fill-opacity:1;stroke-width:0.215655"
       id="path71"
       sodipodi:type="arc"
       sodipodi:cx="184.96083"
       sodipodi:cy="34.149269"
       sodipodi:rx="9.1800051"
       sodipodi:ry="9.9660778"
       sodipodi:start="3.4176382"
       sodipodi:end="2.6766084"
       sodipodi:arc-type="arc"
       d="m 176.12837,31.432984 a 9.1800051,9.9660778 0 0 1 9.66475,-7.208748 9.1800051,9.9660778 0 0 1 8.30678,8.984944 9.1800051,9.9660778 0 0 1 -6.60453,10.518794 9.1800051,9.9660778 0 0 1 -10.73989,-5.109829"
       sodipodi:open="true"
       transform="matrix(0.85596122,0.51704003,-0.52814991,0.84915115,0,0)" />
    <ellipse
       style="fill:#ffdd55;fill-opacity:1;stroke-width:0.191058"
       id="path73"
       cx="123.04937"
       cy="101.32582"
       rx="9.4138432"
       ry="9.2123041" />
    <ellipse
       style="fill:#ffdd55;fill-opacity:1;stroke-width:0.171647"
       id="path75"
       cx="53.935863"
       cy="130.37224"
       rx="8.5037422"
       ry="13.841093"
       transform="matrix(0.92515958,-0.37957839,0.30931979,0.95095808,0,0)" />
    <ellipse
       style="fill:#ffdd55;fill-opacity:1;stroke-width:0.182984"
       id="path77"
       cx="90.502502"
       cy="98.86055"
       rx="9.4138451"
       ry="9.4718046" />
  </g>
</svg>
